<svg width="415" height="855" viewBox="0 0 415 855" fill="none" xmlns="http://www.w3.org/2000/svg">
<g clip-path="url(#clip0_1765_66111)">
<path d="M353.827 2.81653H61.0127C32.333 2.81653 9.0835 26.0189 9.0835 54.6405V800.359C9.0835 828.981 32.333 852.183 61.0127 852.183H353.827C382.506 852.183 405.756 828.981 405.756 800.359V54.6405C405.756 26.0189 382.506 2.81653 353.827 2.81653Z" stroke="black" stroke-width="5.63304"/>
<path d="M5.64447 314.055C4.14747 314.055 2.71177 313.461 1.65323 312.405C0.594684 311.348 0 309.916 0 308.422V257.198C0 255.704 0.594684 254.271 1.65323 253.214C2.71177 252.158 4.14747 251.565 5.64447 251.565H6.42341V314.056L5.64447 314.055ZM408.578 293.224V197.086H409.357C410.854 197.086 412.29 197.68 413.348 198.736C414.407 199.792 415.001 201.225 415.001 202.719V287.594C415.001 289.087 414.407 290.52 413.348 291.577C412.29 292.633 410.854 293.227 409.357 293.227L408.578 293.224ZM5.64447 237.144C4.14747 237.144 2.71177 236.551 1.65323 235.494C0.594684 234.438 0 233.005 0 231.511V180.285C0 178.792 0.594684 177.359 1.65323 176.302C2.71177 175.246 4.14747 174.652 5.64447 174.652H6.42341V237.144H5.64447ZM5.64447 147.414C4.14747 147.414 2.71177 146.82 1.65323 145.764C0.594684 144.708 0 143.275 0 141.781V119.398C0 117.904 0.594684 116.471 1.65323 115.415C2.71177 114.358 4.14747 113.765 5.64447 113.765H6.42341V147.414H5.64447Z" fill="black"/>
</g>
<defs>
<clipPath id="clip0_1765_66111">
<rect width="415" height="855" fill="white"/>
</clipPath>
</defs>
</svg>
